<?xml version="1.0" encoding="UTF-8"?>
<svg id="Layer_1" xmlns="http://www.w3.org/2000/svg" version="1.1" viewBox="0 0 1200 630">
  <!-- Generator: Adobe Illustrator 29.8.4, SVG Export Plug-In . SVG Version: 2.1.1 Build 6)  -->
  <defs>
    <style>
      .st0 {
        stroke-width: 53.6px;
      }

      .st0, .st1 {
        stroke: #4a90d9;
        stroke-linecap: round;
        stroke-linejoin: round;
      }

      .st0, .st2 {
        fill: #fff;
      }

      .st1 {
        stroke-width: 5.2px;
      }

      .st1, .st3 {
        fill: #c9a96e;
      }

      .st4 {
        fill: #1a3a5c;
      }
    </style>
  </defs>
  <rect class="st4" width="1200" height="630"/>
  <g id="Layer_1_copy">
    <g>
      <path class="st2" d="M807.1,403v1.2l-17.5,81.1c-8.2,39.7-43.7,68.8-84.6,68.8h-355.1c-40.8,0-76.4-28.6-84.6-68.8l-47.8-227.4h386c-1.7-5.2-2.9-11.1-4.1-16.9-2.3-11.1-2.9-22.7-2.9-35v-1.7H194.8c-22.2,0-38.5,20.4-33.8,42l52.5,249.6c13.4,64.7,70.6,111.4,137,111.4h355.1c65.9,0,123-46.6,137-111.4l22.2-105v-1.2c-17.5,7-36.7,11.7-57.1,12.8l-.6.6Z"/>
      <path class="st0" d="M626.9,114.4"/>
      <path class="st2" d="M650.8,70.7c-2.3,2.3-4.1,4.1-5.8,6.4-4.1,4.7-8.2,9.3-11.7,14.6-5.2,7.6-9.9,15.2-14,22.7-18.1-8.2-36.7-12.2-56.6-12.2h-68.8c-37.3,0-72.3,14.6-99.1,40.8-16.9,16.9-29.2,37.9-35.6,60.6-.6,1.7-1.2,4.1-1.7,5.8-1.2,4.7-1.7,9.3-2.9,15.2l-3.5,26.2-53.1-7,3.5-26.2c.6-5.2,1.2-9.9,2.3-14,0-2.3,1.2-4.1,1.2-6.4,8.2-34.4,25.7-66.5,51.3-92.1,36.7-36.7,85.1-56.6,137-56.6h68.8c28.6,0,56.6,6.4,82.2,18.1l6.4,2.9v1.2Z"/>
      <path class="st2" d="M368.6,502.8c-7.6,0-14.6-5.2-16.3-12.8l-43.7-172c-2.3-8.7,2.9-18.1,12.2-20.4,8.7-2.3,18.1,2.9,20.4,12.2l43.7,172c2.3,8.7-2.9,18.1-12.2,20.4h-4.1v.6Z"/>
      <path class="st2" d="M477,505.1c-8.2,0-15.2-5.8-16.3-14.6l-25.7-176.1c-1.2-9.3,5.2-17.5,14-19.2,9.3-1.2,17.5,5.2,19.2,14l25.7,176.1c1.2,9.3-5.2,17.5-14,19.2h-2.3l-.6.6Z"/>
      <path class="st2" d="M718.5,388.5l-28,102c-1.7,7.6-8.7,12.2-16.3,12.2s-2.9,0-4.1-.6c-8.7-2.3-14-11.7-11.7-20.4l29.2-107.9v-1.2c.6,0,1.2,1.2,2.3,1.2,4.1,2.3,8.2,5.2,12.8,7.6,4.7,2.3,9.9,5.2,15.2,7h.6Z"/>
      <path class="st2" d="M578.5,505.1h-2.3c-9.3-1.2-15.7-9.9-14-19.2l25.7-176.1c1.2-9.3,9.9-15.7,19.2-14,9.3,1.2,15.7,9.9,14,19.2l-25.7,176.1c-1.2,8.2-8.2,14.6-16.3,14.6l-.6-.6Z"/>
    </g>
    <g>
      <path class="st3" d="M672.4,232.2h-57.1c9.3,50.7,39.7,93.9,81.6,120.1l15.7-57.1c-19.2-15.7-33.8-37.9-40.2-63ZM790.8,22.9c-53.6,0-102,23.9-134.7,61.8-22.7,26.2-37.9,58.9-42,95-1.2,7-1.2,14.6-1.2,21.6,0,11.1,1.2,21.6,2.9,31.5,9.3,50.7,39.7,93.9,81.6,120.1,27.4,16.9,59.5,26.2,93.3,26.2s6.4,0,9.9,0c20.4-1.2,39.1-5.2,57.1-12.8,4.7-1.7,9.9-4.1,14.6-7,19.8-10.5,37.9-23.9,52.5-40.8,27.4-31.5,44.3-72.3,44.3-117.2,0-98-79.9-177.8-178.4-177.8v-.6ZM812.3,321.4c-7,1.2-14.6,1.7-22.2,1.7-29.7,0-56.6-10.5-77.6-28-19.2-15.7-33.8-37.9-40.2-63-2.9-9.9-4.1-21-4.1-31.5s.6-14.6,1.7-21.6c3.5-20.4,12.2-38.5,24.5-54.2,22.2-28.6,57.1-46.6,96.2-46.6,67.6,0,122.5,54.8,122.5,122.5s-15.2,67.6-39.7,90.4c-16.9,15.2-37.9,26.2-60.6,30.3h-.6Z"/>
      <path class="st3" d="M1025.2,492.8l-4.7,3.5c-16.9,13.4-42,9.9-54.2-7.6l-94.5-131.2,51.9-41.4,106.7,121.9c14,16.3,12.2,40.8-4.7,54.2l-.6.6Z"/>
      <path class="st3" d="M901.5,191.4c0,1.7-1.2,2.9-2.9,2.9s-2.9-1.2-2.9-2.9c0-52.5-46.6-98.5-99.1-98.5s-2.9-1.2-2.9-2.9,1.2-2.9,2.9-2.9c56,0,105,48.4,105,103.8v.6Z"/>
      <path class="st1" d="M790.8,93.4"/>
    </g>
  </g>
</svg>